HIERARCHY
ROOT Hips
{
	OFFSET 0.000000 103.266502 0.000000
	CHANNELS 6 Xposition Yposition Zposition Xrotation Yrotation Zrotation 
	JOINT Spine
	{
		OFFSET -0.002400 12.777504 0.315300
		CHANNELS 3 Xrotation Yrotation Zrotation
		JOINT Spine1
		{
			OFFSET -0.002067 5.816869 0.032633
			CHANNELS 3 Xrotation Yrotation Zrotation
			JOINT Spine1_split
			{
				OFFSET -0.002067 5.816869 0.032633
				CHANNELS 3 Xrotation Yrotation Zrotation
				JOINT Spine2
				{
					OFFSET -0.002067 5.816869 0.032633
					CHANNELS 3 Xrotation Yrotation Zrotation
					JOINT Neck
					{
						OFFSET -0.003700 21.199493 -0.826900
						CHANNELS 3 Xrotation Yrotation Zrotation
						JOINT Head
						{
							OFFSET 0.000000 20.442200 4.834800
							CHANNELS 3 Xrotation Yrotation Zrotation
							JOINT HeadTop_End
							{
								OFFSET 0.000000 34.668396 4.968400
								CHANNELS 3 Xrotation Yrotation Zrotation
								End Site
								{
									OFFSET 0.000000 0.000000 0.000000
								}
							}
						}
					}
					JOINT LeftShoulder
					{
						OFFSET 3.288150 8.794197 -1.372250
						CHANNELS 3 Xrotation Yrotation Zrotation
						JOINT LeftShoulder_split
						{
							OFFSET 3.288150 8.794197 -1.372250
							CHANNELS 3 Xrotation Yrotation Zrotation
							JOINT LeftArm
							{
								OFFSET 11.953299 -2.279007 -0.146200
								CHANNELS 3 Xrotation Yrotation Zrotation
								JOINT LeftForeArm
								{
									OFFSET 18.448900 0.000000 0.000000
									CHANNELS 3 Xrotation Yrotation Zrotation
									JOINT LeftHand
									{
										OFFSET 29.527798 0.000000 0.000000
										CHANNELS 3 Xrotation Yrotation Zrotation
										JOINT LeftHandThumb1
										{
											OFFSET 10.739754 -2.369614 9.225399
											CHANNELS 3 Xrotation Yrotation Zrotation
											JOINT LeftHandThumb2
											{
												OFFSET 4.926170 -2.844131 2.844125
												CHANNELS 3 Xrotation Yrotation Zrotation
												JOINT LeftHandThumb3
												{
													OFFSET 4.614891 -2.664413 2.664409
													CHANNELS 3 Xrotation Yrotation Zrotation
													JOINT LeftHandThumb4
													{
														OFFSET 4.432465 -2.559082 2.559083
														CHANNELS 3 Xrotation Yrotation Zrotation
														End Site
														{
															OFFSET 0.000000 0.000000 0.000000
														}
													}
												}
											}
										}
										JOINT LeftHandIndex1
										{
											OFFSET 26.467674 0.187653 6.405298
											CHANNELS 3 Xrotation Yrotation Zrotation
											JOINT LeftHandIndex2
											{
												OFFSET 8.792900 0.000000 0.000000
												CHANNELS 3 Xrotation Yrotation Zrotation
												JOINT LeftHandIndex3
												{
													OFFSET 10.075203 0.000000 0.000000
													CHANNELS 3 Xrotation Yrotation Zrotation
													End Site
													{
														OFFSET 0.000000 0.000000 0.000000
													}
												}
											}
										}
										JOINT LeftHandMiddle1
										{
											OFFSET 25.764404 0.000000 0.000000
											CHANNELS 3 Xrotation Yrotation Zrotation
											JOINT LeftHandMiddle2
											{
												OFFSET 9.393974 0.000000 0.000000
												CHANNELS 3 Xrotation Yrotation Zrotation
												JOINT LeftHandMiddle3
												{
													OFFSET 10.771950 0.000000 0.000000
													CHANNELS 3 Xrotation Yrotation Zrotation
													End Site
													{
														OFFSET 0.000000 0.000000 0.000000
													}
												}
											}
										}
										JOINT LeftHandRing1
										{
											OFFSET 24.660927 0.144547 -6.225808
											CHANNELS 3 Xrotation Yrotation Zrotation
											JOINT LeftHandRing2
											{
												OFFSET 9.393799 0.000000 0.000000
												CHANNELS 3 Xrotation Yrotation Zrotation
												JOINT LeftHandRing3
												{
													OFFSET 9.928497 0.000000 0.000000
													CHANNELS 3 Xrotation Yrotation Zrotation
													End Site
													{
														OFFSET 0.000000 0.000000 0.000000
													}
												}
											}
										}
										JOINT LeftHandPinky1
										{
											OFFSET 23.655350 0.125290 -12.815412
											CHANNELS 3 Xrotation Yrotation Zrotation
											JOINT LeftHandPinky2
											{
												OFFSET 8.425102 0.000000 0.000000
												CHANNELS 3 Xrotation Yrotation Zrotation
												JOINT LeftHandPinky3
												{
													OFFSET 8.147003 0.000000 0.000000
													CHANNELS 3 Xrotation Yrotation Zrotation
													End Site
													{
														OFFSET 0.000000 0.000000 0.000000
													}
												}
											}
										}
									}
								}
							}
						}
					}
					JOINT RightShoulder
					{
						OFFSET -3.249400 8.794197 -1.372250
						CHANNELS 3 Xrotation Yrotation Zrotation
						JOINT RightShoulder_split
						{
							OFFSET -3.249400 8.794197 -1.372250
							CHANNELS 3 Xrotation Yrotation Zrotation
							JOINT RightArm
							{
								OFFSET -11.953299 -2.279007 -0.146200
								CHANNELS 3 Xrotation Yrotation Zrotation
								JOINT RightForeArm
								{
									OFFSET -18.448900 0.000000 0.000000
									CHANNELS 3 Xrotation Yrotation Zrotation
									JOINT RightHand
									{
										OFFSET -29.527802 0.000000 0.000000
										CHANNELS 3 Xrotation Yrotation Zrotation
										JOINT RightHandThumb1
										{
											OFFSET -10.739754 -2.369614 9.225399
											CHANNELS 3 Xrotation Yrotation Zrotation
											JOINT RightHandThumb2
											{
												OFFSET -4.926170 -2.844131 2.844125
												CHANNELS 3 Xrotation Yrotation Zrotation
												JOINT RightHandThumb3
												{
													OFFSET -4.614891 -2.664413 2.664409
													CHANNELS 3 Xrotation Yrotation Zrotation
													JOINT RightHandThumb4
													{
														OFFSET -4.432465 -2.559082 2.559083
														CHANNELS 3 Xrotation Yrotation Zrotation
														End Site
														{
															OFFSET 0.000000 0.000000 0.000000
														}
													}
												}
											}
										}
										JOINT RightHandIndex1
										{
											OFFSET -26.467674 0.187653 6.405298
											CHANNELS 3 Xrotation Yrotation Zrotation
											JOINT RightHandIndex2
											{
												OFFSET -8.792900 0.000000 0.000000
												CHANNELS 3 Xrotation Yrotation Zrotation
												JOINT RightHandIndex3
												{
													OFFSET -10.075203 0.000000 0.000000
													CHANNELS 3 Xrotation Yrotation Zrotation
													End Site
													{
														OFFSET 0.000000 0.000000 0.000000
													}
												}
											}
										}
										JOINT RightHandMiddle1
										{
											OFFSET -25.764404 0.000000 0.000000
											CHANNELS 3 Xrotation Yrotation Zrotation
											JOINT RightHandMiddle2
											{
												OFFSET -9.393974 0.000000 0.000000
												CHANNELS 3 Xrotation Yrotation Zrotation
												JOINT RightHandMiddle3
												{
													OFFSET -10.771950 0.000000 0.000000
													CHANNELS 3 Xrotation Yrotation Zrotation
													End Site
													{
														OFFSET 0.000000 0.000000 0.000000
													}
												}
											}
										}
										JOINT RightHandRing1
										{
											OFFSET -24.660927 0.144547 -6.225808
											CHANNELS 3 Xrotation Yrotation Zrotation
											JOINT RightHandRing2
											{
												OFFSET -9.393799 0.000000 0.000000
												CHANNELS 3 Xrotation Yrotation Zrotation
												JOINT RightHandRing3
												{
													OFFSET -9.928497 0.000000 0.000000
													CHANNELS 3 Xrotation Yrotation Zrotation
													End Site
													{
														OFFSET 0.000000 0.000000 0.000000
													}
												}
											}
										}
										JOINT RightHandPinky1
										{
											OFFSET -23.655350 0.125290 -12.815412
											CHANNELS 3 Xrotation Yrotation Zrotation
											JOINT RightHandPinky2
											{
												OFFSET -8.425102 0.000000 0.000000
												CHANNELS 3 Xrotation Yrotation Zrotation
												JOINT RightHandPinky3
												{
													OFFSET -8.147003 0.000000 0.000000
													CHANNELS 3 Xrotation Yrotation Zrotation
													End Site
													{
														OFFSET 0.000000 0.000000 0.000000
													}
												}
											}
										}
									}
								}
							}
						}
					}
				}
			}
		}
	}
	JOINT LeftUpLeg
	{
		OFFSET 11.394100 -6.187798 -0.413800
		CHANNELS 3 Xrotation Yrotation Zrotation
		JOINT LeftLeg
		{
			OFFSET 0.430247 -32.302673 3.732800
			CHANNELS 3 Xrotation Yrotation Zrotation
			JOINT LeftFoot
			{
				OFFSET -0.430247 -48.264931 -6.423300
				CHANNELS 3 Xrotation Yrotation Zrotation
				JOINT LeftToeBase
				{
					OFFSET 4.230900 -16.068199 23.438400
					CHANNELS 3 Xrotation Yrotation Zrotation
					JOINT LeftToe_End
					{
						OFFSET 4.510700 0.695400 19.974600
						CHANNELS 3 Xrotation Yrotation Zrotation
						End Site
						{
							OFFSET 0.000000 0.000000 0.000000
						}
					}
				}
			}
		}
	}
	JOINT RightUpLeg
	{
		OFFSET -11.333700 -6.187798 -0.413800
		CHANNELS 3 Xrotation Yrotation Zrotation
		JOINT RightLeg
		{
			OFFSET -0.430392 -32.302628 3.733000
			CHANNELS 3 Xrotation Yrotation Zrotation
			JOINT RightFoot
			{
				OFFSET 0.430392 -48.264973 -6.423500
				CHANNELS 3 Xrotation Yrotation Zrotation
				JOINT RightToeBase
				{
					OFFSET -4.230900 -16.068199 23.438400
					CHANNELS 3 Xrotation Yrotation Zrotation
					JOINT RightToe_End
					{
						OFFSET -4.510700 0.695400 19.974600
						CHANNELS 3 Xrotation Yrotation Zrotation
						End Site
						{
							OFFSET 0.000000 0.000000 0.000000
						}
					}
				}
			}
		}
	}
}
MOTION
Frames: 4
Frame Time: 0.016667
0.222701 81.247559 -6.151880 -11.642786 4.129938 0.323992 23.956346 0.164415 0.822845 13.992115 -0.012111 0.874928 0.000000 0.000000 0.000000 13.993083 -0.019272 0.870006 17.101288 -1.158556 -1.120068 -9.419540 -3.200686 0.179588 -0.000001 0.000000 -0.000000 1.274363 -20.464766 -8.784594 0.000000 0.000000 0.000000 -24.361977 0.125568 -58.409537 -134.037244 -77.572432 -130.766417 -10.954460 -21.976291 17.417641 20.303024 9.934866 -19.709491 3.939274 33.659493 6.068805 0.000006 0.000026 0.000012 -0.000000 0.000004 -0.000001 11.348456 7.907822 -58.203689 11.226021 12.103241 -91.045582 -0.000001 0.000000 -0.000001 -3.306165 14.721235 -56.170161 18.751040 6.507081 -95.555569 0.000000 0.000001 0.000002 -8.496642 16.099237 -73.492221 10.309617 4.265387 -84.428378 -0.000001 0.000000 0.000003 -15.187841 25.469000 -80.134047 11.543899 -3.632288 -77.864088 -0.000003 -0.000000 0.000001 4.281757 6.062522 24.486790 0.000000 0.000000 0.000000 -20.183597 30.544001 38.966926 -101.168605 66.637381 94.218662 -10.108807 25.059851 -19.829303 9.450189 -8.378787 2.091209 9.478100 -37.583027 5.312505 0.000004 -0.000008 -0.000002 -0.000000 -0.000003 -0.000000 9.382227 -23.801877 56.987178 11.353618 -12.107982 91.751400 0.000001 0.000001 -0.000002 -6.258900 -19.691621 58.403185 17.354309 -6.618603 88.873370 0.000000 0.000001 0.000003 -12.782198 -20.150849 66.716058 10.303211 -4.268405 84.398277 0.000000 -0.000001 -0.000000 -20.835287 -25.749924 77.824289 11.580050 3.626331 78.017324 -0.000001 -0.000001 0.000001 -42.054509 -5.162459 13.822404 71.741192 0.358443 0.555641 -17.505809 -4.138401 -12.393658 -0.000037 -0.000001 -0.000003 0.000000 -0.000000 -0.000000 -38.426617 -3.145855 -20.117050 72.715833 -0.938593 -0.697955 -21.046938 -1.376941 11.938576 -0.000077 -0.000000 0.000002 0.000000 -0.000002 -0.000000 
0.176593 81.588150 -5.864900 -12.232871 4.156659 0.294793 23.831109 0.156349 0.820557 13.805197 -0.026557 0.877420 0.000000 0.000000 0.000000 13.806111 -0.034361 0.873753 16.072152 -1.248016 -1.155621 -9.382866 -3.306538 0.444387 -0.000001 0.000000 -0.000000 1.202832 -20.287492 -9.383897 0.000000 0.000000 0.000000 -23.683022 -0.501268 -58.145045 -129.876512 -77.684550 -126.405792 -10.999917 -21.654343 17.436730 20.302789 9.934923 -19.709095 3.939259 33.659476 6.068802 0.000004 0.000024 0.000012 -0.000000 -0.000001 -0.000001 11.348458 7.907807 -58.203682 11.226452 12.103491 -91.045602 0.000000 0.000000 -0.000000 -3.306157 14.721242 -56.170185 18.751077 6.507075 -95.555576 0.000001 0.000000 -0.000000 -8.496644 16.099241 -73.492214 10.309649 4.265571 -84.428385 -0.000001 -0.000000 -0.000001 -15.187848 25.468990 -80.134061 11.543893 -3.632266 -77.864088 -0.000001 0.000001 0.000003 4.360493 5.935281 25.053795 0.000000 0.000000 0.000000 -19.084834 29.887689 38.977246 -103.118255 67.822884 95.667174 -10.145648 25.283434 -19.500515 9.446295 -8.364338 2.093528 9.477974 -37.583078 5.312475 0.000004 -0.000008 -0.000002 0.000000 -0.000001 -0.000001 9.382254 -23.801872 56.987188 11.353646 -12.108294 91.751406 0.000001 0.000000 -0.000002 -6.258491 -19.691502 58.403240 17.354317 -6.618633 88.873349 0.000001 -0.000000 -0.000001 -12.782143 -20.150868 66.716086 10.303210 -4.268398 84.398291 0.000000 -0.000001 -0.000003 -20.835262 -25.749943 77.824309 11.580041 3.626333 78.017371 -0.000002 -0.000001 -0.000002 -40.638792 -5.183489 13.851186 71.074013 0.361611 0.551019 -17.650406 -3.988746 -12.463859 -0.000037 -0.000001 -0.000003 0.000000 0.000000 -0.000000 -37.017515 -3.504404 -19.980805 71.970420 -0.893919 -0.686267 -21.169065 -1.459971 11.886759 -0.000077 0.000002 0.000002 0.000000 0.000000 -0.000000 
0.113019 81.916786 -5.590183 -12.399785 4.190833 0.296803 23.645222 0.132978 0.815745 13.485197 -0.074092 0.867700 0.000000 0.000000 0.000000 13.486080 -0.083625 0.864977 15.039861 -1.249822 -1.288810 -9.417309 -3.318418 0.602192 -0.000001 0.000000 0.000000 1.157234 -20.150253 -9.778057 0.000000 0.000000 0.000000 -22.947103 -1.113761 -58.002916 -128.515911 -78.463827 -124.614698 -11.059297 -21.593681 17.251465 20.302572 9.934967 -19.708700 3.939288 33.659507 6.068751 0.000005 0.000025 0.000011 -0.000000 0.000002 -0.000001 11.348466 7.907821 -58.203703 11.226843 12.103755 -91.045623 -0.000001 -0.000000 -0.000001 -3.306162 14.721247 -56.170161 18.751079 6.507073 -95.555583 0.000001 0.000000 0.000004 -8.496652 16.099268 -73.492207 10.309649 4.265829 -84.428446 0.000000 0.000000 0.000002 -15.187866 25.468992 -80.134047 11.543927 -3.632269 -77.864081 0.000001 -0.000001 0.000000 4.416298 5.793499 25.390704 0.000000 0.000000 0.000000 -17.739857 29.670164 39.116743 -104.281546 68.988585 96.225945 -10.264600 25.068394 -18.893381 9.441733 -8.346803 2.096346 9.477888 -37.583106 5.312430 0.000003 -0.000010 -0.000002 -0.000000 -0.000003 -0.000000 9.382259 -23.801888 56.987198 11.353705 -12.108559 91.751413 -0.000000 0.000001 -0.000004 -6.258169 -19.691429 58.403247 17.354322 -6.618625 88.873349 -0.000000 -0.000001 0.000000 -12.782156 -20.150849 66.716079 10.303212 -4.268426 84.398305 0.000001 -0.000000 0.000000 -20.835268 -25.749924 77.824282 11.580039 3.626335 78.017351 0.000002 0.000000 0.000001 -39.705409 -5.172058 13.838973 70.393227 0.371921 0.546357 -17.726579 -3.862005 -12.534518 -0.000037 -0.000001 -0.000003 -0.000000 0.000000 -0.000000 -36.120113 -3.790144 -19.866679 71.285154 -0.879476 -0.676020 -21.256795 -1.540903 11.831224 -0.000077 0.000002 0.000002 -0.000000 -0.000000 0.000000 
0.035708 82.242577 -5.308332 -12.414866 4.229499 0.319224 23.415043 0.088727 0.814692 13.067816 -0.162274 0.825651 0.000000 0.000000 0.000000 13.068606 -0.171246 0.822490 13.978619 -1.216190 -1.482818 -9.588730 -3.290706 0.698247 0.000001 0.000000 0.000000 1.128246 -20.026956 -10.044961 0.000000 0.000000 0.000000 -22.214343 -1.700940 -57.924587 -130.356756 -79.992293 -125.863393 -11.142052 -21.528965 16.750339 20.302379 9.935027 -19.708379 3.939263 33.659473 6.068799 0.000003 0.000020 0.000012 -0.000002 0.000003 -0.000001 11.348450 7.907814 -58.203682 11.227248 12.104006 -91.045663 -0.000000 0.000000 -0.000004 -3.306162 14.721228 -56.170198 18.751058 6.507090 -95.555596 -0.000000 0.000000 -0.000003 -8.496632 16.099248 -73.492234 10.309663 4.266076 -84.428487 0.000000 0.000000 0.000001 -15.187846 25.468980 -80.134095 11.543902 -3.632251 -77.864095 -0.000001 0.000000 0.000001 4.462499 5.633522 25.560921 0.000000 0.000000 0.000000 -16.203640 29.709072 39.388205 -105.211899 70.240757 96.452120 -10.509740 24.499108 -18.061375 9.436420 -8.325844 2.099696 9.477768 -37.583143 5.312402 0.000003 -0.000007 -0.000002 0.000000 0.000000 0.000000 9.382273 -23.801903 56.987195 11.353743 -12.108762 91.751406 0.000001 0.000002 -0.000005 -6.257877 -19.691353 58.403302 17.354322 -6.618613 88.873356 0.000001 -0.000000 -0.000001 -12.782150 -20.150885 66.716058 10.303217 -4.268411 84.398284 -0.000001 -0.000001 0.000001 -20.835260 -25.749934 77.824296 11.580030 3.626348 78.017371 0.000004 0.000000 -0.000001 -38.936986 -5.119006 13.834705 69.694963 0.354667 0.540965 -17.779884 -3.753093 -12.594764 -0.000037 -0.000001 -0.000003 0.000000 0.000000 0.000000 -35.402684 -4.064947 -19.777305 70.621164 -0.847447 -0.665677 -21.342750 -1.628872 11.756716 -0.000077 0.000003 0.000002 -0.000000 0.000002 0.000000 
